<svg width="17" height="16" viewBox="0 0 17 16" fill="none" xmlns="http://www.w3.org/2000/svg">
<path d="M0.42211 0.599999H7.70411C9.39078 0.599999 10.8868 0.915333 12.1921 1.546C13.4974 2.17667 14.5094 3.07133 15.2281 4.23C15.9468 5.38867 16.3061 6.74533 16.3061 8.3C16.3061 9.85467 15.9468 11.2113 15.2281 12.37C14.5094 13.5287 13.4974 14.4233 12.1921 15.054C10.8868 15.6847 9.39078 16 7.70411 16H0.42211V0.599999ZM7.52811 12.524C8.84811 12.524 9.90411 12.15 10.6961 11.402C11.5028 10.654 11.9061 9.62 11.9061 8.3C11.9061 6.98 11.5028 5.946 10.6961 5.198C9.90411 4.45 8.84811 4.076 7.52811 4.076H4.77811V12.524H7.52811Z" fill="black" fill-opacity="0.82"/>
</svg>
